<?xml version="1.0" standalone="no"?>
<!DOCTYPE svg PUBLIC "-//W3C//DTD SVG 20010904//EN"
 "http://www.w3.org/TR/2001/REC-SVG-20010904/DTD/svg10.dtd">
<svg version="1.0" xmlns="http://www.w3.org/2000/svg"
 width="512.000000pt" height="512.000000pt" viewBox="0 0 512.000000 512.000000"
 preserveAspectRatio="xMidYMid meet">
<metadata>
Created by potrace 1.11, written by Peter Selinger 2001-2013
</metadata>
<g transform="translate(0.000000,512.000000) scale(0.100000,-0.100000)"
fill="#000000" stroke="none">
<path d="M4297 4557 c-55 -31 -61 -53 -67 -247 l-5 -174 -171 -1 c-145 0 -175
-3 -197 -18 -60 -39 -81 -111 -48 -164 39 -62 55 -67 245 -68 l171 -1 5 -175
c4 -145 8 -180 23 -202 52 -80 164 -79 211 2 17 30 19 53 19 205 l0 171 176 0
c154 1 179 3 204 19 75 50 75 162 0 212 -24 16 -50 18 -200 19 -95 0 -174 2
-174 5 -1 3 -3 79 -4 170 -2 128 -6 172 -18 196 -33 63 -109 86 -170 51z"/>
<path d="M746 4418 c-97 -14 -176 -87 -201 -186 -9 -35 -11 -476 -11 -1740 l1
-1692 -25 -1 c-14 0 -68 0 -120 1 -79 0 -100 -3 -128 -20 -34 -21 -62 -72 -62
-111 0 -35 29 -84 60 -103 29 -17 137 -18 2194 -18 1965 0 2167 2 2195 16 60
31 81 127 40 180 -18 23 -69 57 -84 56 -3 0 -31 0 -63 0 l-59 0 1 71 c1 39 -2
75 -5 81 -4 5 -58 -24 -125 -68 l-119 -78 -312 -1 c-271 0 -312 2 -315 15 -2
8 -3 79 -3 158 1 94 -2 142 -9 143 -14 1 -229 1 -238 0 -5 -1 -8 -73 -8 -161
l0 -160 -147 0 c-1028 -2 -2405 0 -2411 4 -8 5 -9 3352 -1 3361 12 11 2551 8
2558 -4 4 -6 5 -521 4 -1146 l-4 -1135 23 -1 c139 -3 219 -1 226 5 4 4 7 213
7 464 l1 457 312 3 312 2 2 -342 3 -342 118 -68 c64 -38 121 -67 125 -64 4 2
7 195 6 429 -1 383 -3 431 -19 474 -23 62 -67 109 -130 139 -50 24 -53 24
-387 24 -263 0 -338 3 -339 13 -1 6 -2 269 -3 582 -2 560 -2 571 -23 617 -27
59 -73 105 -132 131 -45 20 -63 20 -1352 21 -718 1 -1327 -2 -1353 -6z"/>
<path d="M1374 3362 c-70 -11 -116 -58 -117 -122 -1 -48 35 -103 78 -119 23
-8 227 -11 726 -11 668 1 696 1 726 20 63 38 82 104 49 168 -35 67 -8 65 -762
66 -374 1 -689 0 -700 -2z"/>
<path d="M1326 2720 c-87 -45 -93 -162 -10 -217 25 -16 83 -17 733 -17 778 0
747 -3 785 63 35 60 18 130 -41 168 -25 17 -76 18 -732 18 -611 0 -709 -2
-735 -15z"/>
<path d="M3859 2012 c0 -4 -1 -81 -2 -172 l-2 -165 -475 -1 c-261 0 -491 -4
-510 -8 -39 -8 -68 -29 -94 -68 -14 -22 -18 -49 -18 -131 0 -57 3 -115 7 -128
14 -47 54 -88 93 -95 20 -4 253 -8 517 -8 l480 -1 2 -150 c1 -82 2 -151 2
-152 1 -1 144 82 319 184 174 103 376 220 447 261 72 41 134 78 138 82 5 4
-70 55 -165 112 -581 353 -738 447 -739 440z"/>
</g>
</svg>
